<svg width="115" height="43" viewBox="0 0 115 43" xmlns="http://www.w3.org/2000/svg">
    <path d="M14.841 23.703V37.991H18.997V0H12.79C6.692 0 1.565 4.119 1.565 12.145C1.565 17.871 3.832 20.975 7.232 22.687L0 37.991H4.803L11.387 23.703H14.841V23.703ZM14.828 20.37H12.616C9 20.37 6.031 18.39 6.031 12.236C6.031 5.869 9.269 3.596 12.616 3.596H14.828V20.37Z" fill="#FF0000"/>
    <path d="M60.964 34.5289H58.804L58.794 11.0329H46.167V13.3329C46.167 20.5039 45.907 28.8029 43.425 34.5289H41.75V42.9969H45.527V37.9539H57.185V42.9959H60.963V34.5279L60.964 34.5289ZM77.74 33.0059C76.66 33.7559 74.771 34.8259 72.397 34.8259C69.051 34.8259 67.324 31.6149 67.324 25.5149H78.657V23.2139C78.657 14.0639 75.689 10.6919 71.155 10.6919C65.381 10.6919 62.952 17.0059 62.952 25.6749C62.952 33.9689 66.406 38.4099 72.019 38.4099C74.717 38.4099 76.984 37.5539 78.711 36.2169L77.74 33.0059ZM34.636 10.9989V22.5099H28.376V10.9999H24.166V37.9689H28.376V25.8029H34.636V37.9689H38.792V10.9989H34.636ZM94.265 37.9589H98.852L91.135 23.6709L97.881 10.9889H93.617L87.087 23.4569V10.9889H82.877V37.9589H87.087V24.5259L94.265 37.9569V37.9589ZM114.745 36.2709L113.773 33.1669C112.801 34.0229 111.236 34.8259 109.186 34.8259C105.786 34.8259 104.166 30.9729 104.166 24.2309C104.166 17.4349 106.326 14.0639 109.347 14.0639C111.074 14.0639 112.693 14.9739 113.827 15.9369L114.421 11.9769C113.233 11.2279 111.83 10.5859 109.401 10.5859C103.033 10.5859 99.741 15.9899 99.741 24.4449C99.741 33.6489 103.249 38.3049 109.078 38.3049C111.56 38.3049 113.289 37.5019 114.745 36.2709ZM54.697 34.6239H47.465C49.73 28.8989 50 20.6039 50 14.9319V14.4509H54.696L54.697 34.6239ZM74.302 22.1399H67.34C67.61 17.3239 68.527 14.1669 71.117 14.1669C73.546 14.1669 74.302 17.5379 74.302 22.1399Z" fill="black"/>
</svg>
