<?xml version="1.0" standalone="no"?>
<!DOCTYPE svg PUBLIC "-//W3C//DTD SVG 20010904//EN"
 "http://www.w3.org/TR/2001/REC-SVG-20010904/DTD/svg10.dtd">
<svg version="1.0" xmlns="http://www.w3.org/2000/svg"
 width="290.000000pt" height="290.000000pt" viewBox="0 0 290.000000 290.000000"
 preserveAspectRatio="xMidYMid meet">
<g transform="translate(0.000000,290.000000) scale(0.100000,-0.100000)"
fill="#000000" stroke="none">
<path d="M1251 2889 c-25 -5 -62 -11 -84 -14 -60 -9 -202 -52 -282 -86 -66
-27 -243 -123 -255 -138 -3 -3 -32 -26 -65 -50 -90 -66 -232 -216 -302 -318
-173 -251 -256 -514 -257 -808 -1 -220 16 -330 75 -501 128 -370 403 -676 752
-838 119 -56 203 -83 341 -111 96 -20 135 -23 291 -20 149 3 198 7 285 28 200
47 392 136 545 250 93 69 227 204 296 297 55 75 91 132 47 75 -239 -309 -528
-483 -898 -541 -83 -13 -320 -13 -385 0 -322 65 -531 172 -741 381 -257 256
-398 595 -396 955 0 63 3 129 5 145 3 17 9 50 12 75 14 85 26 135 56 225 107
314 358 603 666 763 78 41 274 106 373 123 110 19 365 17 470 -5 214 -44 425
-139 581 -262 38 -31 192 -185 232 -234 25 -30 20 -20 -13 27 -127 180 -319
342 -525 442 -101 50 -219 96 -268 105 -7 1 -37 8 -67 14 -30 6 -76 16 -101
20 -58 11 -331 12 -388 1z"/>
<path d="M1528 2755 c-2 -1 -41 -5 -88 -9 -317 -21 -640 -187 -854 -437 -68
-79 -66 -80 9 -7 104 99 136 126 215 175 195 121 404 183 628 185 544 4 1013
-348 1167 -877 26 -91 30 -108 40 -200 30 -251 -28 -527 -155 -744 -113 -194
-281 -357 -480 -464 -80 -43 -227 -99 -295 -112 -246 -46 -459 -33 -665 41
-179 64 -325 159 -474 309 l-60 60 50 -60 c27 -33 60 -70 74 -83 14 -13 45
-43 70 -66 136 -126 354 -239 551 -285 561 -132 1136 122 1424 629 53 93 100
213 131 337 25 96 28 127 28 283 1 180 -4 231 -30 335 -92 358 -321 654 -644
834 -107 59 -287 122 -390 136 -108 14 -246 25 -252 20z"/>
<path d="M1334 2451 c-73 -33 -124 -121 -118 -205 5 -63 43 -129 96 -164 36
-23 52 -27 114 -27 64 0 77 3 116 30 132 94 120 292 -23 365 -49 26 -130 26
-185 1z"/>
<path d="M984 2096 c-11 -8 -34 -14 -50 -14 -41 1 -60 -11 -130 -84 -284 -295
-366 -621 -237 -948 84 -213 260 -415 505 -579 42 -28 81 -51 87 -51 23 0 9
16 -46 55 -150 104 -314 271 -404 410 -110 170 -161 380 -135 555 27 176 131
376 275 529 104 110 107 79 11 -117 -87 -176 -104 -219 -131 -329 -56 -228 24
-447 265 -717 38 -43 63 -63 69 -57 11 11 -24 71 -106 181 -127 169 -203 377
-182 501 9 52 41 70 81 45 28 -19 69 -100 79 -156 16 -90 87 -184 220 -288
111 -88 172 -158 216 -249 21 -45 39 -87 39 -92 0 -6 6 -11 14 -11 7 0 24 26
37 58 46 115 103 187 230 287 136 108 208 201 229 295 16 76 50 141 82 159 23
13 30 13 52 2 25 -14 25 -16 22 -105 -6 -148 -62 -285 -188 -456 -160 -217
-125 -235 48 -25 150 182 237 426 202 565 -5 19 -11 49 -14 65 -12 63 -49 156
-126 318 -64 132 -78 171 -69 180 10 9 27 -3 78 -58 244 -261 331 -566 243
-850 -52 -164 -155 -321 -304 -462 -75 -71 -207 -177 -262 -209 -10 -7 -16
-15 -12 -19 20 -21 232 130 359 256 150 149 241 299 290 475 30 108 30 276 0
389 -41 155 -140 317 -282 463 -67 68 -84 77 -132 73 -9 -1 -24 5 -33 13 -35
35 -99 7 -108 -48 -9 -53 98 -326 127 -326 13 0 13 7 0 58 -8 31 -28 96 -44
143 -32 95 -32 98 -21 117 12 18 42 4 42 -20 0 -11 29 -77 64 -146 69 -137
124 -261 136 -303 8 -25 6 -27 -18 -20 -44 11 -71 2 -112 -39 -37 -37 -74
-115 -85 -182 -12 -66 -100 -178 -197 -251 -68 -51 -150 -141 -192 -213 l-42
-72 -33 65 c-35 67 -116 155 -237 258 -90 76 -138 144 -159 225 -23 89 -51
145 -91 180 -35 30 -46 34 -96 30 -16 -1 -28 4 -28 10 0 17 53 136 131 294 38
76 69 149 69 161 0 23 24 40 41 29 15 -9 10 -40 -25 -146 -44 -131 -54 -182
-35 -176 34 11 123 240 124 315 0 63 -51 93 -101 59z"/>
<path d="M1592 2017 c-67 -31 -90 -36 -168 -38 -71 -1 -120 9 -181 38 -86 40
-112 22 -148 -100 -42 -146 -3 -325 95 -430 42 -46 42 -39 -1 -145 -12 -30
-11 -37 10 -77 30 -56 94 -116 158 -147 81 -40 139 -23 232 71 92 92 99 112
66 191 -28 66 -28 63 18 115 113 126 135 399 41 522 -29 38 -41 38 -122 0z"/>
</g>
</svg>
