<svg class="preloader" xmlns="http://www.w3.org/2000/svg" version="1.1" width="32px" height="32px" viewBox="0 0 100 100">
    <rect class="preloader__background" x="0" y="0" width="100%" height="100%" fill="#000000" />
    <g class="preloader__body" fill="#ffffff">
        <path class="preloader__petal" d="M50 0h2v28h-4V0z" opacity="0.056" transform="rotate(20 50 50)"/>
        <path class="preloader__petal" d="M50 0h2v28h-4V0z" opacity="0.111" transform="rotate(40 50 50)"/>
        <path class="preloader__petal" d="M50 0h2v28h-4V0z" opacity="0.168" transform="rotate(60 50 50)"/>
        <path class="preloader__petal" d="M50 0h2v28h-4V0z" opacity="0.222" transform="rotate(80 50 50)"/>
        <path class="preloader__petal" d="M50 0h2v28h-4V0z" opacity="0.278" transform="rotate(100 50 50)"/>
        <path class="preloader__petal" d="M50 0h2v28h-4V0z" opacity="0.333" transform="rotate(120 50 50)"/>
        <path class="preloader__petal" d="M50 0h2v28h-4V0z" opacity="0.389" transform="rotate(140 50 50)"/>
        <path class="preloader__petal" d="M50 0h2v28h-4V0z" opacity="0.444" transform="rotate(160 50 50)"/>
        <path class="preloader__petal" d="M50 0h2v28h-4V0z" opacity="0.500" transform="rotate(180 50 50)"/>
        <path class="preloader__petal" d="M50 0h2v28h-4V0z" opacity="0.556" transform="rotate(200 50 50)"/>
        <path class="preloader__petal" d="M50 0h2v28h-4V0z" opacity="0.611" transform="rotate(220 50 50)"/>
        <path class="preloader__petal" d="M50 0h2v28h-4V0z" opacity="0.667" transform="rotate(240 50 50)"/>
        <path class="preloader__petal" d="M50 0h2v28h-4V0z" opacity="0.722" transform="rotate(260 50 50)"/>
        <path class="preloader__petal" d="M50 0h2v28h-4V0z" opacity="0.778" transform="rotate(280 50 50)"/>
        <path class="preloader__petal" d="M50 0h2v28h-4V0z" opacity="0.833" transform="rotate(300 50 50)"/>
        <path class="preloader__petal" d="M50 0h2v28h-4V0z" opacity="0.889" transform="rotate(320 50 50)"/>
        <path class="preloader__petal" d="M50 0h2v28h-4V0z" opacity="0.944" transform="rotate(340 50 50)"/>
        <path class="preloader__petal" d="M50 0h2v28h-4V0z"/>
    </g>
</svg>
