<svg width="212" height="217" viewBox="0 0 212 217" fill="#d4e5f1" xmlns="http://www.w3.org/2000/svg">
    <path d="M106 0L120.426 15.2672L138.756 5.31037L147.867 24.3934L168.305 20.7217L171.209 41.7527L191.756 44.7253L188.169 65.6456L206.812 74.9717L197.085 93.7334L212 108.5L197.085 123.267L206.812 142.028L188.169 151.354L191.756 172.275L171.209 175.247L168.305 196.278L147.867 192.607L138.756 211.69L120.426 201.733L106 217L91.5736 201.733L73.2442 211.69L64.133 192.607L43.6948 196.278L40.7906 175.247L20.2442 172.275L23.8314 151.354L5.18801 142.028L14.9154 123.267L0 108.5L14.9154 93.7334L5.18801 74.9717L23.8314 65.6456L20.2442 44.7253L40.7906 41.7527L43.6948 20.7217L64.133 24.3934L73.2442 5.31037L91.5736 15.2672L106 0Z"/>
</svg>
